<mxfile host="app.diagrams.net" agent="Mozilla/5.0 (Macintosh; Intel Mac OS X 10_15_7) AppleWebKit/537.36 (KHTML, like Gecko) Chrome/131.0.0.0 Safari/537.36" version="26.0.5" pages="6">
  <diagram name="Page-1" id="-H_mtQnk-PTXWXPvYvuk">
    <mxGraphModel dx="1242" dy="703" grid="1" gridSize="10" guides="1" tooltips="1" connect="1" arrows="1" fold="1" page="1" pageScale="1" pageWidth="1169" pageHeight="827" math="0" shadow="0">
      <root>
        <mxCell id="0" />
        <mxCell id="1" parent="0" />
        <mxCell id="zA23MoTUsTF4_91t8viU-2" value="MongoDB" style="shape=cylinder3;whiteSpace=wrap;html=1;boundedLbl=1;backgroundOutline=1;size=15;" parent="1" vertex="1">
          <mxGeometry x="560" y="280" width="60" height="80" as="geometry" />
        </mxCell>
        <mxCell id="zA23MoTUsTF4_91t8viU-3" value="pymongo-api" style="rounded=1;whiteSpace=wrap;html=1;" parent="1" vertex="1">
          <mxGeometry x="360" y="290" width="120" height="60" as="geometry" />
        </mxCell>
        <mxCell id="zA23MoTUsTF4_91t8viU-4" style="edgeStyle=orthogonalEdgeStyle;rounded=0;orthogonalLoop=1;jettySize=auto;html=1;exitX=1;exitY=0.5;exitDx=0;exitDy=0;entryX=0;entryY=0.5;entryDx=0;entryDy=0;entryPerimeter=0;" parent="1" source="zA23MoTUsTF4_91t8viU-3" target="zA23MoTUsTF4_91t8viU-2" edge="1">
          <mxGeometry relative="1" as="geometry" />
        </mxCell>
      </root>
    </mxGraphModel>
  </diagram>
  <diagram id="Fk9JXOZQ27LRcUBPBT5p" name="1">
    <mxGraphModel dx="1242" dy="702" grid="1" gridSize="10" guides="1" tooltips="1" connect="1" arrows="1" fold="1" page="1" pageScale="1" pageWidth="827" pageHeight="1169" math="0" shadow="0">
      <root>
        <mxCell id="0" />
        <mxCell id="1" parent="0" />
        <mxCell id="WL3jdmxkVJkvDkuOwMXY-1" value="" style="edgeStyle=orthogonalEdgeStyle;rounded=0;orthogonalLoop=1;jettySize=auto;html=1;entryX=0.5;entryY=1;entryDx=0;entryDy=0;" parent="1" target="WL3jdmxkVJkvDkuOwMXY-10" edge="1">
          <mxGeometry relative="1" as="geometry">
            <mxPoint x="350" y="250" as="sourcePoint" />
            <mxPoint x="350" y="200" as="targetPoint" />
          </mxGeometry>
        </mxCell>
        <mxCell id="WL3jdmxkVJkvDkuOwMXY-2" value="" style="edgeStyle=orthogonalEdgeStyle;rounded=0;orthogonalLoop=1;jettySize=auto;html=1;startArrow=classic;startFill=1;exitX=1;exitY=0.5;exitDx=0;exitDy=0;" parent="1" source="WL3jdmxkVJkvDkuOwMXY-9" target="WL3jdmxkVJkvDkuOwMXY-6" edge="1">
          <mxGeometry relative="1" as="geometry">
            <mxPoint x="380" y="290" as="sourcePoint" />
          </mxGeometry>
        </mxCell>
        <mxCell id="WL3jdmxkVJkvDkuOwMXY-3" value="pymongo-api" style="rounded=1;whiteSpace=wrap;html=1;" parent="1" vertex="1">
          <mxGeometry x="120" y="260" width="120" height="60" as="geometry" />
        </mxCell>
        <mxCell id="WL3jdmxkVJkvDkuOwMXY-4" style="edgeStyle=orthogonalEdgeStyle;rounded=0;orthogonalLoop=1;jettySize=auto;html=1;exitX=1;exitY=0.5;exitDx=0;exitDy=0;entryX=0;entryY=0.5;entryDx=0;entryDy=0;" parent="1" source="WL3jdmxkVJkvDkuOwMXY-3" target="WL3jdmxkVJkvDkuOwMXY-9" edge="1">
          <mxGeometry relative="1" as="geometry">
            <mxPoint x="320" y="290" as="targetPoint" />
          </mxGeometry>
        </mxCell>
        <mxCell id="WL3jdmxkVJkvDkuOwMXY-5" value="" style="edgeStyle=orthogonalEdgeStyle;rounded=0;orthogonalLoop=1;jettySize=auto;html=1;exitX=0.5;exitY=0;exitDx=0;exitDy=0;exitPerimeter=0;entryX=1;entryY=0.5;entryDx=0;entryDy=0;" parent="1" source="WL3jdmxkVJkvDkuOwMXY-6" target="WL3jdmxkVJkvDkuOwMXY-10" edge="1">
          <mxGeometry relative="1" as="geometry">
            <mxPoint x="450" y="160" as="targetPoint" />
          </mxGeometry>
        </mxCell>
        <mxCell id="WL3jdmxkVJkvDkuOwMXY-6" value="shard1" style="shape=cylinder3;whiteSpace=wrap;html=1;boundedLbl=1;backgroundOutline=1;size=15;" parent="1" vertex="1">
          <mxGeometry x="540" y="250" width="120" height="80" as="geometry" />
        </mxCell>
        <mxCell id="WL3jdmxkVJkvDkuOwMXY-8" value="" style="edgeStyle=orthogonalEdgeStyle;rounded=0;orthogonalLoop=1;jettySize=auto;html=1;startArrow=classic;startFill=1;entryX=0;entryY=0.5;entryDx=0;entryDy=0;entryPerimeter=0;exitX=0.5;exitY=1;exitDx=0;exitDy=0;" parent="1" source="WL3jdmxkVJkvDkuOwMXY-9" target="WL3jdmxkVJkvDkuOwMXY-12" edge="1">
          <mxGeometry relative="1" as="geometry">
            <mxPoint x="350" y="430" as="targetPoint" />
          </mxGeometry>
        </mxCell>
        <mxCell id="WL3jdmxkVJkvDkuOwMXY-9" value="router" style="rhombus;whiteSpace=wrap;html=1;" parent="1" vertex="1">
          <mxGeometry x="290" y="250" width="120" height="80" as="geometry" />
        </mxCell>
        <mxCell id="WL3jdmxkVJkvDkuOwMXY-10" value="config service" style="rounded=0;whiteSpace=wrap;html=1;" parent="1" vertex="1">
          <mxGeometry x="290" y="140" width="120" height="60" as="geometry" />
        </mxCell>
        <mxCell id="WL3jdmxkVJkvDkuOwMXY-11" value="" style="edgeStyle=orthogonalEdgeStyle;rounded=0;orthogonalLoop=1;jettySize=auto;html=1;entryX=1;entryY=0.5;entryDx=0;entryDy=0;exitX=1;exitY=0.5;exitDx=0;exitDy=0;exitPerimeter=0;" parent="1" source="WL3jdmxkVJkvDkuOwMXY-12" target="WL3jdmxkVJkvDkuOwMXY-10" edge="1">
          <mxGeometry relative="1" as="geometry">
            <mxPoint x="820" y="390" as="sourcePoint" />
            <mxPoint x="690" y="160" as="targetPoint" />
          </mxGeometry>
        </mxCell>
        <mxCell id="WL3jdmxkVJkvDkuOwMXY-12" value="shard2" style="shape=cylinder3;whiteSpace=wrap;html=1;boundedLbl=1;backgroundOutline=1;size=15;" parent="1" vertex="1">
          <mxGeometry x="540" y="430" width="120" height="80" as="geometry" />
        </mxCell>
      </root>
    </mxGraphModel>
  </diagram>
  <diagram id="-GfurR2gaffeRvT0gtuL" name="2">
    <mxGraphModel dx="1911" dy="2249" grid="1" gridSize="10" guides="1" tooltips="1" connect="1" arrows="1" fold="1" page="1" pageScale="1" pageWidth="827" pageHeight="1169" math="0" shadow="0">
      <root>
        <mxCell id="0" />
        <mxCell id="1" parent="0" />
        <mxCell id="8NsXM8uhlLjXF4FjYxiY-2" value="" style="edgeStyle=orthogonalEdgeStyle;rounded=0;orthogonalLoop=1;jettySize=auto;html=1;startArrow=classic;startFill=1;exitX=1;exitY=0.5;exitDx=0;exitDy=0;" parent="1" source="8NsXM8uhlLjXF4FjYxiY-8" target="8NsXM8uhlLjXF4FjYxiY-6" edge="1">
          <mxGeometry relative="1" as="geometry">
            <mxPoint x="380" y="290" as="sourcePoint" />
          </mxGeometry>
        </mxCell>
        <mxCell id="8NsXM8uhlLjXF4FjYxiY-3" value="pymongo-api" style="rounded=1;whiteSpace=wrap;html=1;" parent="1" vertex="1">
          <mxGeometry x="80" y="260" width="120" height="60" as="geometry" />
        </mxCell>
        <mxCell id="8NsXM8uhlLjXF4FjYxiY-4" style="edgeStyle=orthogonalEdgeStyle;rounded=0;orthogonalLoop=1;jettySize=auto;html=1;exitX=1;exitY=0.5;exitDx=0;exitDy=0;entryX=0;entryY=0.5;entryDx=0;entryDy=0;" parent="1" source="8NsXM8uhlLjXF4FjYxiY-3" target="8NsXM8uhlLjXF4FjYxiY-8" edge="1">
          <mxGeometry relative="1" as="geometry">
            <mxPoint x="320" y="290" as="targetPoint" />
          </mxGeometry>
        </mxCell>
        <mxCell id="cHsAk6Z3_fjm1fGHIs1U-2" value="" style="edgeStyle=orthogonalEdgeStyle;rounded=0;orthogonalLoop=1;jettySize=auto;html=1;entryX=0;entryY=0.5;entryDx=0;entryDy=0;entryPerimeter=0;" parent="1" source="8NsXM8uhlLjXF4FjYxiY-6" target="cHsAk6Z3_fjm1fGHIs1U-1" edge="1">
          <mxGeometry relative="1" as="geometry" />
        </mxCell>
        <mxCell id="8NsXM8uhlLjXF4FjYxiY-6" value="&lt;div&gt;shard1_1&lt;/div&gt;" style="shape=cylinder3;whiteSpace=wrap;html=1;boundedLbl=1;backgroundOutline=1;size=15;" parent="1" vertex="1">
          <mxGeometry x="520" y="245" width="80" height="90" as="geometry" />
        </mxCell>
        <mxCell id="8NsXM8uhlLjXF4FjYxiY-7" value="" style="edgeStyle=orthogonalEdgeStyle;rounded=0;orthogonalLoop=1;jettySize=auto;html=1;startArrow=classic;startFill=1;entryX=0;entryY=0.5;entryDx=0;entryDy=0;entryPerimeter=0;exitX=0.5;exitY=1;exitDx=0;exitDy=0;" parent="1" source="8NsXM8uhlLjXF4FjYxiY-8" target="8NsXM8uhlLjXF4FjYxiY-11" edge="1">
          <mxGeometry relative="1" as="geometry">
            <mxPoint x="440" y="600" as="sourcePoint" />
          </mxGeometry>
        </mxCell>
        <mxCell id="8NsXM8uhlLjXF4FjYxiY-8" value="router1" style="rhombus;whiteSpace=wrap;html=1;" parent="1" vertex="1">
          <mxGeometry x="360" y="250" width="120" height="80" as="geometry" />
        </mxCell>
        <mxCell id="8NsXM8uhlLjXF4FjYxiY-11" value="shard2_1" style="shape=cylinder3;whiteSpace=wrap;html=1;boundedLbl=1;backgroundOutline=1;size=15;" parent="1" vertex="1">
          <mxGeometry x="520" y="560" width="80" height="80" as="geometry" />
        </mxCell>
        <mxCell id="cHsAk6Z3_fjm1fGHIs1U-1" value="shard1_2" style="shape=cylinder3;whiteSpace=wrap;html=1;boundedLbl=1;backgroundOutline=1;size=15;" parent="1" vertex="1">
          <mxGeometry x="780" y="180" width="90" height="90" as="geometry" />
        </mxCell>
        <mxCell id="cHsAk6Z3_fjm1fGHIs1U-7" value="shard1_3" style="shape=cylinder3;whiteSpace=wrap;html=1;boundedLbl=1;backgroundOutline=1;size=15;" parent="1" vertex="1">
          <mxGeometry x="780" y="335" width="90" height="90" as="geometry" />
        </mxCell>
        <mxCell id="cHsAk6Z3_fjm1fGHIs1U-8" value="" style="edgeStyle=orthogonalEdgeStyle;rounded=0;orthogonalLoop=1;jettySize=auto;html=1;entryX=0;entryY=0.5;entryDx=0;entryDy=0;entryPerimeter=0;exitX=1;exitY=0.5;exitDx=0;exitDy=0;exitPerimeter=0;" parent="1" source="8NsXM8uhlLjXF4FjYxiY-6" target="cHsAk6Z3_fjm1fGHIs1U-7" edge="1">
          <mxGeometry relative="1" as="geometry">
            <mxPoint x="610" y="300" as="sourcePoint" />
            <mxPoint x="690" y="300" as="targetPoint" />
          </mxGeometry>
        </mxCell>
        <mxCell id="cHsAk6Z3_fjm1fGHIs1U-12" value="" style="edgeStyle=orthogonalEdgeStyle;rounded=0;orthogonalLoop=1;jettySize=auto;html=1;entryX=0;entryY=0.5;entryDx=0;entryDy=0;entryPerimeter=0;exitX=1;exitY=0.5;exitDx=0;exitDy=0;exitPerimeter=0;" parent="1" source="8NsXM8uhlLjXF4FjYxiY-11" target="cHsAk6Z3_fjm1fGHIs1U-13" edge="1">
          <mxGeometry relative="1" as="geometry">
            <mxPoint x="610" y="600" as="sourcePoint" />
          </mxGeometry>
        </mxCell>
        <mxCell id="cHsAk6Z3_fjm1fGHIs1U-13" value="shard2_2" style="shape=cylinder3;whiteSpace=wrap;html=1;boundedLbl=1;backgroundOutline=1;size=15;" parent="1" vertex="1">
          <mxGeometry x="780" y="480" width="90" height="80" as="geometry" />
        </mxCell>
        <mxCell id="cHsAk6Z3_fjm1fGHIs1U-16" value="shard2_3" style="shape=cylinder3;whiteSpace=wrap;html=1;boundedLbl=1;backgroundOutline=1;size=15;" parent="1" vertex="1">
          <mxGeometry x="780" y="640" width="90" height="80" as="geometry" />
        </mxCell>
        <mxCell id="cHsAk6Z3_fjm1fGHIs1U-17" value="" style="edgeStyle=orthogonalEdgeStyle;rounded=0;orthogonalLoop=1;jettySize=auto;html=1;entryX=0;entryY=0.5;entryDx=0;entryDy=0;entryPerimeter=0;exitX=1;exitY=0.5;exitDx=0;exitDy=0;exitPerimeter=0;" parent="1" source="8NsXM8uhlLjXF4FjYxiY-11" target="cHsAk6Z3_fjm1fGHIs1U-16" edge="1">
          <mxGeometry relative="1" as="geometry">
            <mxPoint x="600" y="601" as="sourcePoint" />
            <mxPoint x="690" y="610" as="targetPoint" />
          </mxGeometry>
        </mxCell>
        <mxCell id="Vf0lao3_P7Uq7kDxxLOy-4" value="&lt;div&gt;config service&lt;/div&gt;&lt;div&gt;1&lt;/div&gt;" style="shape=cylinder3;whiteSpace=wrap;html=1;boundedLbl=1;backgroundOutline=1;size=15;" parent="1" vertex="1">
          <mxGeometry x="520" y="-130" width="80" height="90" as="geometry" />
        </mxCell>
        <mxCell id="vf8blMnYWcD-aWEcKqpp-1" value="" style="endArrow=classic;html=1;rounded=0;exitX=0.5;exitY=0;exitDx=0;exitDy=0;entryX=0;entryY=0.5;entryDx=0;entryDy=0;entryPerimeter=0;edgeStyle=orthogonalEdgeStyle;" parent="1" source="8NsXM8uhlLjXF4FjYxiY-8" target="Vf0lao3_P7Uq7kDxxLOy-4" edge="1">
          <mxGeometry width="50" height="50" relative="1" as="geometry">
            <mxPoint x="360" y="230" as="sourcePoint" />
            <mxPoint x="480" y="-20" as="targetPoint" />
          </mxGeometry>
        </mxCell>
      </root>
    </mxGraphModel>
  </diagram>
  <diagram id="VgzYy9HLflRDxgdtapXB" name="3">
    <mxGraphModel dx="2070" dy="2339" grid="1" gridSize="10" guides="1" tooltips="1" connect="1" arrows="1" fold="1" page="1" pageScale="1" pageWidth="827" pageHeight="1169" math="0" shadow="0">
      <root>
        <mxCell id="0" />
        <mxCell id="1" parent="0" />
        <mxCell id="_PcpYN5ebKKO6rgKbt7r-47" value="" style="rounded=1;whiteSpace=wrap;html=1;fillColor=none;dashed=1;" parent="1" vertex="1">
          <mxGeometry x="480" y="519" width="440" height="320" as="geometry" />
        </mxCell>
        <mxCell id="_PcpYN5ebKKO6rgKbt7r-45" value="" style="rounded=1;whiteSpace=wrap;html=1;fillColor=none;dashed=1;" parent="1" vertex="1">
          <mxGeometry x="480" y="160" width="440" height="320" as="geometry" />
        </mxCell>
        <mxCell id="_PcpYN5ebKKO6rgKbt7r-1" value="" style="edgeStyle=orthogonalEdgeStyle;rounded=0;orthogonalLoop=1;jettySize=auto;html=1;startArrow=classic;startFill=1;exitX=1;exitY=0.5;exitDx=0;exitDy=0;" parent="1" source="_PcpYN5ebKKO6rgKbt7r-7" target="_PcpYN5ebKKO6rgKbt7r-5" edge="1">
          <mxGeometry relative="1" as="geometry">
            <mxPoint x="380" y="290" as="sourcePoint" />
          </mxGeometry>
        </mxCell>
        <mxCell id="_PcpYN5ebKKO6rgKbt7r-2" value="pymongo-api" style="rounded=1;whiteSpace=wrap;html=1;" parent="1" vertex="1">
          <mxGeometry x="40" y="260" width="120" height="60" as="geometry" />
        </mxCell>
        <mxCell id="_PcpYN5ebKKO6rgKbt7r-3" style="edgeStyle=orthogonalEdgeStyle;rounded=0;orthogonalLoop=1;jettySize=auto;html=1;exitX=1;exitY=0.5;exitDx=0;exitDy=0;entryX=0;entryY=0.5;entryDx=0;entryDy=0;fillColor=#60a917;strokeColor=#2D7600;" parent="1" source="_PcpYN5ebKKO6rgKbt7r-2" target="_PcpYN5ebKKO6rgKbt7r-7" edge="1">
          <mxGeometry relative="1" as="geometry">
            <mxPoint x="230" y="290" as="targetPoint" />
          </mxGeometry>
        </mxCell>
        <mxCell id="_PcpYN5ebKKO6rgKbt7r-4" value="" style="edgeStyle=orthogonalEdgeStyle;rounded=0;orthogonalLoop=1;jettySize=auto;html=1;entryX=0;entryY=0.5;entryDx=0;entryDy=0;entryPerimeter=0;startArrow=none;startFill=0;exitX=0.5;exitY=0;exitDx=0;exitDy=0;exitPerimeter=0;" parent="1" source="_PcpYN5ebKKO6rgKbt7r-5" target="_PcpYN5ebKKO6rgKbt7r-10" edge="1">
          <mxGeometry relative="1" as="geometry" />
        </mxCell>
        <mxCell id="_PcpYN5ebKKO6rgKbt7r-5" value="&lt;div&gt;shard1_1&lt;/div&gt;" style="shape=cylinder3;whiteSpace=wrap;html=1;boundedLbl=1;backgroundOutline=1;size=15;" parent="1" vertex="1">
          <mxGeometry x="520" y="245" width="80" height="90" as="geometry" />
        </mxCell>
        <mxCell id="_PcpYN5ebKKO6rgKbt7r-7" value="router" style="rhombus;whiteSpace=wrap;html=1;" parent="1" vertex="1">
          <mxGeometry x="270" y="250" width="120" height="80" as="geometry" />
        </mxCell>
        <mxCell id="_PcpYN5ebKKO6rgKbt7r-8" value="shard2_1" style="shape=cylinder3;whiteSpace=wrap;html=1;boundedLbl=1;backgroundOutline=1;size=15;" parent="1" vertex="1">
          <mxGeometry x="520" y="639" width="80" height="80" as="geometry" />
        </mxCell>
        <mxCell id="_PcpYN5ebKKO6rgKbt7r-10" value="shard1_2" style="shape=cylinder3;whiteSpace=wrap;html=1;boundedLbl=1;backgroundOutline=1;size=15;" parent="1" vertex="1">
          <mxGeometry x="780" y="180" width="90" height="90" as="geometry" />
        </mxCell>
        <mxCell id="_PcpYN5ebKKO6rgKbt7r-36" value="" style="edgeStyle=orthogonalEdgeStyle;rounded=0;orthogonalLoop=1;jettySize=auto;html=1;startArrow=classic;startFill=1;dashed=1;" parent="1" source="_PcpYN5ebKKO6rgKbt7r-11" target="_PcpYN5ebKKO6rgKbt7r-10" edge="1">
          <mxGeometry relative="1" as="geometry" />
        </mxCell>
        <mxCell id="_PcpYN5ebKKO6rgKbt7r-11" value="shard1_3" style="shape=cylinder3;whiteSpace=wrap;html=1;boundedLbl=1;backgroundOutline=1;size=15;" parent="1" vertex="1">
          <mxGeometry x="780" y="335" width="90" height="90" as="geometry" />
        </mxCell>
        <mxCell id="_PcpYN5ebKKO6rgKbt7r-12" value="" style="edgeStyle=orthogonalEdgeStyle;rounded=0;orthogonalLoop=1;jettySize=auto;html=1;entryX=0;entryY=0.5;entryDx=0;entryDy=0;entryPerimeter=0;exitX=0.5;exitY=1;exitDx=0;exitDy=0;exitPerimeter=0;startArrow=none;startFill=0;" parent="1" source="_PcpYN5ebKKO6rgKbt7r-5" target="_PcpYN5ebKKO6rgKbt7r-11" edge="1">
          <mxGeometry relative="1" as="geometry">
            <mxPoint x="610" y="300" as="sourcePoint" />
            <mxPoint x="690" y="300" as="targetPoint" />
          </mxGeometry>
        </mxCell>
        <mxCell id="_PcpYN5ebKKO6rgKbt7r-13" value="" style="edgeStyle=orthogonalEdgeStyle;rounded=0;orthogonalLoop=1;jettySize=auto;html=1;entryX=0;entryY=0.5;entryDx=0;entryDy=0;entryPerimeter=0;exitX=0.5;exitY=0;exitDx=0;exitDy=0;exitPerimeter=0;startArrow=none;startFill=0;" parent="1" source="_PcpYN5ebKKO6rgKbt7r-8" target="_PcpYN5ebKKO6rgKbt7r-14" edge="1">
          <mxGeometry relative="1" as="geometry">
            <mxPoint x="610" y="679" as="sourcePoint" />
          </mxGeometry>
        </mxCell>
        <mxCell id="_PcpYN5ebKKO6rgKbt7r-41" value="" style="edgeStyle=orthogonalEdgeStyle;rounded=0;orthogonalLoop=1;jettySize=auto;html=1;startArrow=classic;startFill=1;dashed=1;" parent="1" source="_PcpYN5ebKKO6rgKbt7r-14" target="_PcpYN5ebKKO6rgKbt7r-15" edge="1">
          <mxGeometry relative="1" as="geometry" />
        </mxCell>
        <mxCell id="_PcpYN5ebKKO6rgKbt7r-14" value="shard2_2" style="shape=cylinder3;whiteSpace=wrap;html=1;boundedLbl=1;backgroundOutline=1;size=15;" parent="1" vertex="1">
          <mxGeometry x="780" y="559" width="90" height="80" as="geometry" />
        </mxCell>
        <mxCell id="_PcpYN5ebKKO6rgKbt7r-15" value="shard2_3" style="shape=cylinder3;whiteSpace=wrap;html=1;boundedLbl=1;backgroundOutline=1;size=15;" parent="1" vertex="1">
          <mxGeometry x="780" y="719" width="90" height="80" as="geometry" />
        </mxCell>
        <mxCell id="_PcpYN5ebKKO6rgKbt7r-16" value="" style="edgeStyle=orthogonalEdgeStyle;rounded=0;orthogonalLoop=1;jettySize=auto;html=1;entryX=0;entryY=0.5;entryDx=0;entryDy=0;entryPerimeter=0;exitX=0.5;exitY=1;exitDx=0;exitDy=0;exitPerimeter=0;startArrow=none;startFill=0;" parent="1" source="_PcpYN5ebKKO6rgKbt7r-8" target="_PcpYN5ebKKO6rgKbt7r-15" edge="1">
          <mxGeometry relative="1" as="geometry">
            <mxPoint x="600" y="680" as="sourcePoint" />
            <mxPoint x="690" y="689" as="targetPoint" />
            <Array as="points">
              <mxPoint x="560" y="759" />
            </Array>
          </mxGeometry>
        </mxCell>
        <mxCell id="_PcpYN5ebKKO6rgKbt7r-27" value="&lt;div&gt;config service&lt;/div&gt;&lt;div&gt;1&lt;/div&gt;" style="shape=cylinder3;whiteSpace=wrap;html=1;boundedLbl=1;backgroundOutline=1;size=15;" parent="1" vertex="1">
          <mxGeometry x="650" y="-120" width="80" height="79" as="geometry" />
        </mxCell>
        <mxCell id="_PcpYN5ebKKO6rgKbt7r-31" value="" style="endArrow=classic;html=1;rounded=0;exitX=0.5;exitY=0;exitDx=0;exitDy=0;entryX=0;entryY=0.5;entryDx=0;entryDy=0;entryPerimeter=0;edgeStyle=orthogonalEdgeStyle;fillColor=#e51400;strokeColor=#B20000;" parent="1" source="_PcpYN5ebKKO6rgKbt7r-7" target="_PcpYN5ebKKO6rgKbt7r-27" edge="1">
          <mxGeometry width="50" height="50" relative="1" as="geometry">
            <mxPoint x="420" y="209" as="sourcePoint" />
            <mxPoint x="480" y="-61" as="targetPoint" />
            <Array as="points">
              <mxPoint x="330" y="-81" />
            </Array>
          </mxGeometry>
        </mxCell>
        <mxCell id="_PcpYN5ebKKO6rgKbt7r-34" value="redis" style="shape=cylinder3;whiteSpace=wrap;html=1;boundedLbl=1;backgroundOutline=1;size=15;" parent="1" vertex="1">
          <mxGeometry x="200" y="120" width="70" height="80" as="geometry" />
        </mxCell>
        <mxCell id="_PcpYN5ebKKO6rgKbt7r-35" value="" style="endArrow=classic;html=1;rounded=0;exitX=1;exitY=0.5;exitDx=0;exitDy=0;entryX=0.5;entryY=1;entryDx=0;entryDy=0;entryPerimeter=0;edgeStyle=orthogonalEdgeStyle;startArrow=classic;startFill=1;fillColor=#e3c800;strokeColor=#B09500;" parent="1" source="_PcpYN5ebKKO6rgKbt7r-2" target="_PcpYN5ebKKO6rgKbt7r-34" edge="1">
          <mxGeometry width="50" height="50" relative="1" as="geometry">
            <mxPoint x="410" y="410" as="sourcePoint" />
            <mxPoint x="460" y="360" as="targetPoint" />
          </mxGeometry>
        </mxCell>
        <mxCell id="_PcpYN5ebKKO6rgKbt7r-46" value="shard1" style="text;html=1;align=center;verticalAlign=middle;whiteSpace=wrap;rounded=0;" parent="1" vertex="1">
          <mxGeometry x="650" y="130" width="80" height="30" as="geometry" />
        </mxCell>
        <mxCell id="_PcpYN5ebKKO6rgKbt7r-48" value="shard2" style="text;html=1;align=center;verticalAlign=middle;whiteSpace=wrap;rounded=0;" parent="1" vertex="1">
          <mxGeometry x="650" y="489" width="80" height="30" as="geometry" />
        </mxCell>
        <mxCell id="5WHXESvOyJ-qEU5rkJ9k-2" value="" style="endArrow=classic;html=1;rounded=0;exitX=1;exitY=0.5;exitDx=0;exitDy=0;edgeStyle=orthogonalEdgeStyle;entryX=1;entryY=0.5;entryDx=0;entryDy=0;entryPerimeter=0;" parent="1" source="_PcpYN5ebKKO6rgKbt7r-45" edge="1" target="_PcpYN5ebKKO6rgKbt7r-27">
          <mxGeometry width="50" height="50" relative="1" as="geometry">
            <mxPoint x="540" y="240" as="sourcePoint" />
            <mxPoint x="920" as="targetPoint" />
            <Array as="points">
              <mxPoint x="960" y="320" />
              <mxPoint x="960" y="-81" />
            </Array>
          </mxGeometry>
        </mxCell>
        <mxCell id="5WHXESvOyJ-qEU5rkJ9k-6" value="" style="endArrow=classic;html=1;rounded=0;exitX=1;exitY=0.5;exitDx=0;exitDy=0;edgeStyle=orthogonalEdgeStyle;entryX=1;entryY=0.5;entryDx=0;entryDy=0;entryPerimeter=0;" parent="1" source="_PcpYN5ebKKO6rgKbt7r-47" target="_PcpYN5ebKKO6rgKbt7r-27" edge="1">
          <mxGeometry width="50" height="50" relative="1" as="geometry">
            <mxPoint x="1070" y="560" as="sourcePoint" />
            <mxPoint x="920.0000000000005" y="-81" as="targetPoint" />
            <Array as="points">
              <mxPoint x="1000" y="679" />
              <mxPoint x="1000" y="-80" />
            </Array>
          </mxGeometry>
        </mxCell>
        <mxCell id="5WHXESvOyJ-qEU5rkJ9k-12" value="update metainfo about shards" style="text;html=1;align=center;verticalAlign=middle;whiteSpace=wrap;rounded=0;" parent="1" vertex="1">
          <mxGeometry x="1010" y="290" width="120" height="30" as="geometry" />
        </mxCell>
        <mxCell id="FWNRJ4aHnBofgjupSUsK-1" value="" style="edgeStyle=orthogonalEdgeStyle;rounded=0;orthogonalLoop=1;jettySize=auto;html=1;startArrow=classic;startFill=1;exitX=0.5;exitY=1;exitDx=0;exitDy=0;entryX=0;entryY=0.5;entryDx=0;entryDy=0;entryPerimeter=0;" edge="1" parent="1" source="_PcpYN5ebKKO6rgKbt7r-7" target="_PcpYN5ebKKO6rgKbt7r-8">
          <mxGeometry relative="1" as="geometry">
            <mxPoint x="400" y="300" as="sourcePoint" />
            <mxPoint x="530" y="300" as="targetPoint" />
          </mxGeometry>
        </mxCell>
      </root>
    </mxGraphModel>
  </diagram>
  <diagram id="E4wJmKnKELeS7UyUBMEN" name="4">
    <mxGraphModel dx="2601" dy="2172" grid="1" gridSize="10" guides="1" tooltips="1" connect="1" arrows="1" fold="1" page="1" pageScale="1" pageWidth="827" pageHeight="1169" math="0" shadow="0">
      <root>
        <mxCell id="0" />
        <mxCell id="1" parent="0" />
        <mxCell id="t7QF3boOG8DhyDPYzb-r-2" value="" style="rounded=1;whiteSpace=wrap;html=1;fillColor=none;dashed=1;" parent="1" vertex="1">
          <mxGeometry x="480" y="519" width="440" height="320" as="geometry" />
        </mxCell>
        <mxCell id="t7QF3boOG8DhyDPYzb-r-3" value="" style="rounded=1;whiteSpace=wrap;html=1;fillColor=none;dashed=1;" parent="1" vertex="1">
          <mxGeometry x="480" y="160" width="440" height="320" as="geometry" />
        </mxCell>
        <mxCell id="t7QF3boOG8DhyDPYzb-r-5" value="" style="edgeStyle=orthogonalEdgeStyle;rounded=0;orthogonalLoop=1;jettySize=auto;html=1;startArrow=classic;startFill=1;exitX=1;exitY=0.5;exitDx=0;exitDy=0;" parent="1" source="t7QF3boOG8DhyDPYzb-r-11" target="t7QF3boOG8DhyDPYzb-r-9" edge="1">
          <mxGeometry relative="1" as="geometry">
            <mxPoint x="380" y="290" as="sourcePoint" />
          </mxGeometry>
        </mxCell>
        <mxCell id="t7QF3boOG8DhyDPYzb-r-6" value="pymongo-api" style="rounded=1;whiteSpace=wrap;html=1;" parent="1" vertex="1">
          <mxGeometry x="-240" y="260" width="120" height="60" as="geometry" />
        </mxCell>
        <mxCell id="t7QF3boOG8DhyDPYzb-r-7" style="edgeStyle=orthogonalEdgeStyle;rounded=0;orthogonalLoop=1;jettySize=auto;html=1;exitX=1;exitY=0.5;exitDx=0;exitDy=0;entryX=0;entryY=0.5;entryDx=0;entryDy=0;fillColor=#60a917;strokeColor=#2D7600;" parent="1" source="t7QF3boOG8DhyDPYzb-r-6" target="t7QF3boOG8DhyDPYzb-r-11" edge="1">
          <mxGeometry relative="1" as="geometry">
            <mxPoint x="230" y="290" as="targetPoint" />
          </mxGeometry>
        </mxCell>
        <mxCell id="t7QF3boOG8DhyDPYzb-r-8" value="" style="edgeStyle=orthogonalEdgeStyle;rounded=0;orthogonalLoop=1;jettySize=auto;html=1;entryX=0;entryY=0.5;entryDx=0;entryDy=0;entryPerimeter=0;startArrow=none;startFill=0;exitX=0.5;exitY=0;exitDx=0;exitDy=0;exitPerimeter=0;" parent="1" source="t7QF3boOG8DhyDPYzb-r-9" target="t7QF3boOG8DhyDPYzb-r-14" edge="1">
          <mxGeometry relative="1" as="geometry" />
        </mxCell>
        <mxCell id="t7QF3boOG8DhyDPYzb-r-9" value="&lt;div&gt;shard1_1&lt;/div&gt;" style="shape=cylinder3;whiteSpace=wrap;html=1;boundedLbl=1;backgroundOutline=1;size=15;" parent="1" vertex="1">
          <mxGeometry x="520" y="245" width="80" height="90" as="geometry" />
        </mxCell>
        <mxCell id="t7QF3boOG8DhyDPYzb-r-10" value="" style="edgeStyle=orthogonalEdgeStyle;rounded=0;orthogonalLoop=1;jettySize=auto;html=1;startArrow=classic;startFill=1;entryX=0;entryY=0.5;entryDx=0;entryDy=0;entryPerimeter=0;exitX=0.5;exitY=1;exitDx=0;exitDy=0;" parent="1" source="t7QF3boOG8DhyDPYzb-r-11" target="t7QF3boOG8DhyDPYzb-r-12" edge="1">
          <mxGeometry relative="1" as="geometry">
            <mxPoint x="350" y="410" as="sourcePoint" />
          </mxGeometry>
        </mxCell>
        <mxCell id="t7QF3boOG8DhyDPYzb-r-11" value="router" style="rhombus;whiteSpace=wrap;html=1;" parent="1" vertex="1">
          <mxGeometry x="270" y="250" width="120" height="80" as="geometry" />
        </mxCell>
        <mxCell id="t7QF3boOG8DhyDPYzb-r-12" value="shard2_1" style="shape=cylinder3;whiteSpace=wrap;html=1;boundedLbl=1;backgroundOutline=1;size=15;" parent="1" vertex="1">
          <mxGeometry x="520" y="639" width="80" height="80" as="geometry" />
        </mxCell>
        <mxCell id="t7QF3boOG8DhyDPYzb-r-14" value="shard1_2" style="shape=cylinder3;whiteSpace=wrap;html=1;boundedLbl=1;backgroundOutline=1;size=15;" parent="1" vertex="1">
          <mxGeometry x="780" y="180" width="90" height="90" as="geometry" />
        </mxCell>
        <mxCell id="t7QF3boOG8DhyDPYzb-r-15" value="" style="edgeStyle=orthogonalEdgeStyle;rounded=0;orthogonalLoop=1;jettySize=auto;html=1;startArrow=classic;startFill=1;dashed=1;" parent="1" source="t7QF3boOG8DhyDPYzb-r-16" target="t7QF3boOG8DhyDPYzb-r-14" edge="1">
          <mxGeometry relative="1" as="geometry" />
        </mxCell>
        <mxCell id="t7QF3boOG8DhyDPYzb-r-16" value="shard1_3" style="shape=cylinder3;whiteSpace=wrap;html=1;boundedLbl=1;backgroundOutline=1;size=15;" parent="1" vertex="1">
          <mxGeometry x="780" y="335" width="90" height="90" as="geometry" />
        </mxCell>
        <mxCell id="t7QF3boOG8DhyDPYzb-r-17" value="" style="edgeStyle=orthogonalEdgeStyle;rounded=0;orthogonalLoop=1;jettySize=auto;html=1;entryX=0;entryY=0.5;entryDx=0;entryDy=0;entryPerimeter=0;exitX=0.5;exitY=1;exitDx=0;exitDy=0;exitPerimeter=0;startArrow=none;startFill=0;" parent="1" source="t7QF3boOG8DhyDPYzb-r-9" target="t7QF3boOG8DhyDPYzb-r-16" edge="1">
          <mxGeometry relative="1" as="geometry">
            <mxPoint x="610" y="300" as="sourcePoint" />
            <mxPoint x="690" y="300" as="targetPoint" />
          </mxGeometry>
        </mxCell>
        <mxCell id="t7QF3boOG8DhyDPYzb-r-18" value="" style="edgeStyle=orthogonalEdgeStyle;rounded=0;orthogonalLoop=1;jettySize=auto;html=1;entryX=0;entryY=0.5;entryDx=0;entryDy=0;entryPerimeter=0;exitX=0.5;exitY=0;exitDx=0;exitDy=0;exitPerimeter=0;startArrow=none;startFill=0;" parent="1" source="t7QF3boOG8DhyDPYzb-r-12" target="t7QF3boOG8DhyDPYzb-r-20" edge="1">
          <mxGeometry relative="1" as="geometry">
            <mxPoint x="610" y="679" as="sourcePoint" />
          </mxGeometry>
        </mxCell>
        <mxCell id="t7QF3boOG8DhyDPYzb-r-19" value="" style="edgeStyle=orthogonalEdgeStyle;rounded=0;orthogonalLoop=1;jettySize=auto;html=1;startArrow=classic;startFill=1;dashed=1;" parent="1" source="t7QF3boOG8DhyDPYzb-r-20" target="t7QF3boOG8DhyDPYzb-r-21" edge="1">
          <mxGeometry relative="1" as="geometry" />
        </mxCell>
        <mxCell id="t7QF3boOG8DhyDPYzb-r-20" value="shard2_2" style="shape=cylinder3;whiteSpace=wrap;html=1;boundedLbl=1;backgroundOutline=1;size=15;" parent="1" vertex="1">
          <mxGeometry x="780" y="559" width="90" height="80" as="geometry" />
        </mxCell>
        <mxCell id="t7QF3boOG8DhyDPYzb-r-21" value="shard2_3" style="shape=cylinder3;whiteSpace=wrap;html=1;boundedLbl=1;backgroundOutline=1;size=15;" parent="1" vertex="1">
          <mxGeometry x="780" y="719" width="90" height="80" as="geometry" />
        </mxCell>
        <mxCell id="t7QF3boOG8DhyDPYzb-r-22" value="" style="edgeStyle=orthogonalEdgeStyle;rounded=0;orthogonalLoop=1;jettySize=auto;html=1;entryX=0;entryY=0.5;entryDx=0;entryDy=0;entryPerimeter=0;exitX=0.5;exitY=1;exitDx=0;exitDy=0;exitPerimeter=0;startArrow=none;startFill=0;" parent="1" source="t7QF3boOG8DhyDPYzb-r-12" target="t7QF3boOG8DhyDPYzb-r-21" edge="1">
          <mxGeometry relative="1" as="geometry">
            <mxPoint x="600" y="680" as="sourcePoint" />
            <mxPoint x="690" y="689" as="targetPoint" />
            <Array as="points">
              <mxPoint x="560" y="759" />
            </Array>
          </mxGeometry>
        </mxCell>
        <mxCell id="t7QF3boOG8DhyDPYzb-r-34" value="&lt;div&gt;config service&lt;/div&gt;" style="shape=cylinder3;whiteSpace=wrap;html=1;boundedLbl=1;backgroundOutline=1;size=15;" parent="1" vertex="1">
          <mxGeometry x="510" y="-40" width="80" height="79" as="geometry" />
        </mxCell>
        <mxCell id="t7QF3boOG8DhyDPYzb-r-39" value="" style="endArrow=classic;html=1;rounded=0;exitX=0.5;exitY=0;exitDx=0;exitDy=0;entryX=0;entryY=0.5;entryDx=0;entryDy=0;entryPerimeter=0;edgeStyle=orthogonalEdgeStyle;fillColor=#e51400;strokeColor=#B20000;" parent="1" source="t7QF3boOG8DhyDPYzb-r-11" target="t7QF3boOG8DhyDPYzb-r-34" edge="1">
          <mxGeometry width="50" height="50" relative="1" as="geometry">
            <mxPoint x="420" y="209" as="sourcePoint" />
            <mxPoint x="480" y="-61" as="targetPoint" />
          </mxGeometry>
        </mxCell>
        <mxCell id="t7QF3boOG8DhyDPYzb-r-42" value="redis" style="shape=cylinder3;whiteSpace=wrap;html=1;boundedLbl=1;backgroundOutline=1;size=15;" parent="1" vertex="1">
          <mxGeometry x="50" y="120" width="70" height="80" as="geometry" />
        </mxCell>
        <mxCell id="t7QF3boOG8DhyDPYzb-r-43" value="" style="endArrow=classic;html=1;rounded=0;exitX=1;exitY=0.5;exitDx=0;exitDy=0;entryX=0.5;entryY=1;entryDx=0;entryDy=0;entryPerimeter=0;edgeStyle=orthogonalEdgeStyle;startArrow=classic;startFill=1;fillColor=#e3c800;strokeColor=#B09500;" parent="1" source="t7QF3boOG8DhyDPYzb-r-6" target="t7QF3boOG8DhyDPYzb-r-42" edge="1">
          <mxGeometry width="50" height="50" relative="1" as="geometry">
            <mxPoint x="260" y="410" as="sourcePoint" />
            <mxPoint x="310" y="360" as="targetPoint" />
          </mxGeometry>
        </mxCell>
        <mxCell id="t7QF3boOG8DhyDPYzb-r-46" value="shard1" style="text;html=1;align=center;verticalAlign=middle;whiteSpace=wrap;rounded=0;" parent="1" vertex="1">
          <mxGeometry x="650" y="130" width="80" height="30" as="geometry" />
        </mxCell>
        <mxCell id="t7QF3boOG8DhyDPYzb-r-47" value="shard2" style="text;html=1;align=center;verticalAlign=middle;whiteSpace=wrap;rounded=0;" parent="1" vertex="1">
          <mxGeometry x="650" y="489" width="80" height="30" as="geometry" />
        </mxCell>
        <mxCell id="t7QF3boOG8DhyDPYzb-r-49" value="" style="endArrow=classic;html=1;rounded=0;exitX=1;exitY=0.5;exitDx=0;exitDy=0;edgeStyle=orthogonalEdgeStyle;dashed=1;entryX=1;entryY=0.5;entryDx=0;entryDy=0;entryPerimeter=0;" parent="1" source="t7QF3boOG8DhyDPYzb-r-3" edge="1" target="t7QF3boOG8DhyDPYzb-r-34">
          <mxGeometry width="50" height="50" relative="1" as="geometry">
            <mxPoint x="540" y="240" as="sourcePoint" />
            <mxPoint x="920" as="targetPoint" />
            <Array as="points">
              <mxPoint x="960" y="320" />
              <mxPoint x="960" />
            </Array>
          </mxGeometry>
        </mxCell>
        <mxCell id="t7QF3boOG8DhyDPYzb-r-53" value="pymongo-api" style="rounded=1;whiteSpace=wrap;html=1;" parent="1" vertex="1">
          <mxGeometry x="-240" y="519" width="120" height="60" as="geometry" />
        </mxCell>
        <mxCell id="t7QF3boOG8DhyDPYzb-r-54" value="pymongo-api" style="rounded=1;whiteSpace=wrap;html=1;" parent="1" vertex="1">
          <mxGeometry x="-240" y="400" width="120" height="60" as="geometry" />
        </mxCell>
        <mxCell id="t7QF3boOG8DhyDPYzb-r-55" style="rounded=0;orthogonalLoop=1;jettySize=auto;html=1;exitX=1;exitY=0.5;exitDx=0;exitDy=0;entryX=0;entryY=0.5;entryDx=0;entryDy=0;fillColor=#60a917;strokeColor=#2D7600;" parent="1" source="t7QF3boOG8DhyDPYzb-r-54" target="t7QF3boOG8DhyDPYzb-r-11" edge="1">
          <mxGeometry relative="1" as="geometry">
            <mxPoint x="280" y="300" as="targetPoint" />
            <mxPoint x="-110" y="300" as="sourcePoint" />
          </mxGeometry>
        </mxCell>
        <mxCell id="t7QF3boOG8DhyDPYzb-r-60" style="rounded=0;orthogonalLoop=1;jettySize=auto;html=1;exitX=1;exitY=0.5;exitDx=0;exitDy=0;entryX=0;entryY=0.5;entryDx=0;entryDy=0;fillColor=#60a917;strokeColor=#2D7600;" parent="1" source="t7QF3boOG8DhyDPYzb-r-53" target="t7QF3boOG8DhyDPYzb-r-11" edge="1">
          <mxGeometry relative="1" as="geometry">
            <mxPoint x="240" y="689" as="targetPoint" />
            <mxPoint x="-110" y="1050" as="sourcePoint" />
          </mxGeometry>
        </mxCell>
        <mxCell id="t7QF3boOG8DhyDPYzb-r-66" value="" style="edgeStyle=orthogonalEdgeStyle;rounded=0;orthogonalLoop=1;jettySize=auto;html=1;" parent="1" source="t7QF3boOG8DhyDPYzb-r-61" target="t7QF3boOG8DhyDPYzb-r-54" edge="1">
          <mxGeometry relative="1" as="geometry" />
        </mxCell>
        <mxCell id="t7QF3boOG8DhyDPYzb-r-61" value="apisix gw" style="rounded=1;whiteSpace=wrap;html=1;" parent="1" vertex="1">
          <mxGeometry x="-480" y="400" width="120" height="60" as="geometry" />
        </mxCell>
        <mxCell id="t7QF3boOG8DhyDPYzb-r-62" value="consul" style="rounded=1;whiteSpace=wrap;html=1;" parent="1" vertex="1">
          <mxGeometry x="-480" y="260" width="120" height="60" as="geometry" />
        </mxCell>
        <mxCell id="t7QF3boOG8DhyDPYzb-r-63" value="" style="endArrow=classic;html=1;rounded=0;exitX=0;exitY=0.5;exitDx=0;exitDy=0;entryX=1;entryY=0.5;entryDx=0;entryDy=0;dashed=1;" parent="1" source="t7QF3boOG8DhyDPYzb-r-6" target="t7QF3boOG8DhyDPYzb-r-62" edge="1">
          <mxGeometry width="50" height="50" relative="1" as="geometry">
            <mxPoint x="90" y="650" as="sourcePoint" />
            <mxPoint x="140" y="600" as="targetPoint" />
            <Array as="points">
              <mxPoint x="-320" y="290" />
            </Array>
          </mxGeometry>
        </mxCell>
        <mxCell id="t7QF3boOG8DhyDPYzb-r-64" value="" style="endArrow=classic;html=1;rounded=0;exitX=0;exitY=0.5;exitDx=0;exitDy=0;entryX=1;entryY=0.5;entryDx=0;entryDy=0;dashed=1;" parent="1" source="t7QF3boOG8DhyDPYzb-r-54" target="t7QF3boOG8DhyDPYzb-r-62" edge="1">
          <mxGeometry width="50" height="50" relative="1" as="geometry">
            <mxPoint x="-230" y="300" as="sourcePoint" />
            <mxPoint x="-410" y="300" as="targetPoint" />
          </mxGeometry>
        </mxCell>
        <mxCell id="t7QF3boOG8DhyDPYzb-r-65" value="" style="endArrow=classic;html=1;rounded=0;exitX=0;exitY=0.5;exitDx=0;exitDy=0;entryX=1;entryY=0.5;entryDx=0;entryDy=0;dashed=1;" parent="1" source="t7QF3boOG8DhyDPYzb-r-53" target="t7QF3boOG8DhyDPYzb-r-62" edge="1">
          <mxGeometry width="50" height="50" relative="1" as="geometry">
            <mxPoint x="-230" y="689" as="sourcePoint" />
            <mxPoint x="-410" y="300" as="targetPoint" />
          </mxGeometry>
        </mxCell>
        <mxCell id="t7QF3boOG8DhyDPYzb-r-67" value="" style="endArrow=classic;html=1;rounded=0;exitX=0.5;exitY=0;exitDx=0;exitDy=0;entryX=0.5;entryY=1;entryDx=0;entryDy=0;dashed=1;" parent="1" source="t7QF3boOG8DhyDPYzb-r-61" target="t7QF3boOG8DhyDPYzb-r-62" edge="1">
          <mxGeometry width="50" height="50" relative="1" as="geometry">
            <mxPoint x="90" y="650" as="sourcePoint" />
            <mxPoint x="140" y="600" as="targetPoint" />
          </mxGeometry>
        </mxCell>
        <mxCell id="G_SqhsayNI72ZC4Lb6jR-1" value="" style="endArrow=classic;html=1;rounded=0;edgeStyle=orthogonalEdgeStyle;dashed=1;exitX=1;exitY=0.5;exitDx=0;exitDy=0;entryX=1;entryY=0.5;entryDx=0;entryDy=0;entryPerimeter=0;" edge="1" parent="1" source="t7QF3boOG8DhyDPYzb-r-2" target="t7QF3boOG8DhyDPYzb-r-34">
          <mxGeometry width="50" height="50" relative="1" as="geometry">
            <mxPoint x="960" y="679" as="sourcePoint" />
            <mxPoint x="590" y="60" as="targetPoint" />
            <Array as="points">
              <mxPoint x="1000" y="679" />
              <mxPoint x="1000" />
              <mxPoint x="590" />
            </Array>
          </mxGeometry>
        </mxCell>
      </root>
    </mxGraphModel>
  </diagram>
  <diagram id="SNbeIBAXQIvWoaxxQ1Fa" name="5">
    <mxGraphModel dx="3311" dy="1404" grid="1" gridSize="10" guides="1" tooltips="1" connect="1" arrows="1" fold="1" page="1" pageScale="1" pageWidth="827" pageHeight="1169" math="0" shadow="0">
      <root>
        <mxCell id="0" />
        <mxCell id="1" parent="0" />
        <mxCell id="XJ9OWa9lEA3RZw-inG0E-69" value="" style="edgeStyle=orthogonalEdgeStyle;rounded=0;orthogonalLoop=1;jettySize=auto;html=1;" parent="1" source="XJ9OWa9lEA3RZw-inG0E-68" edge="1">
          <mxGeometry relative="1" as="geometry">
            <mxPoint x="-480" y="679" as="targetPoint" />
          </mxGeometry>
        </mxCell>
        <mxCell id="XJ9OWa9lEA3RZw-inG0E-68" value="nginx" style="rounded=1;whiteSpace=wrap;html=1;" parent="1" vertex="1">
          <mxGeometry x="-720" y="649" width="120" height="60" as="geometry" />
        </mxCell>
        <mxCell id="XJ9OWa9lEA3RZw-inG0E-70" value="cdn0" style="ellipse;shape=cloud;whiteSpace=wrap;html=1;" parent="1" vertex="1">
          <mxGeometry x="-480" y="1221" width="120" height="80" as="geometry" />
        </mxCell>
        <mxCell id="XJ9OWa9lEA3RZw-inG0E-71" value="cdn1" style="ellipse;shape=cloud;whiteSpace=wrap;html=1;" parent="1" vertex="1">
          <mxGeometry x="-480" y="1381" width="120" height="80" as="geometry" />
        </mxCell>
        <mxCell id="XJ9OWa9lEA3RZw-inG0E-72" value="cdn2" style="ellipse;shape=cloud;whiteSpace=wrap;html=1;" parent="1" vertex="1">
          <mxGeometry x="-480" y="1541" width="120" height="80" as="geometry" />
        </mxCell>
        <mxCell id="XJ9OWa9lEA3RZw-inG0E-73" value="" style="endArrow=classic;html=1;rounded=0;exitX=1;exitY=0.5;exitDx=0;exitDy=0;entryX=0.16;entryY=0.55;entryDx=0;entryDy=0;entryPerimeter=0;edgeStyle=orthogonalEdgeStyle;" parent="1" source="XJ9OWa9lEA3RZw-inG0E-68" target="XJ9OWa9lEA3RZw-inG0E-70" edge="1">
          <mxGeometry width="50" height="50" relative="1" as="geometry">
            <mxPoint x="-600" y="740" as="sourcePoint" />
            <mxPoint x="-80" y="1151" as="targetPoint" />
            <Array as="points">
              <mxPoint x="-560" y="679" />
              <mxPoint x="-560" y="1265" />
            </Array>
          </mxGeometry>
        </mxCell>
        <mxCell id="XJ9OWa9lEA3RZw-inG0E-74" value="" style="endArrow=classic;html=1;rounded=0;exitX=1;exitY=0.5;exitDx=0;exitDy=0;edgeStyle=orthogonalEdgeStyle;entryX=0.16;entryY=0.55;entryDx=0;entryDy=0;entryPerimeter=0;" parent="1" source="XJ9OWa9lEA3RZw-inG0E-68" target="XJ9OWa9lEA3RZw-inG0E-71" edge="1">
          <mxGeometry width="50" height="50" relative="1" as="geometry">
            <mxPoint x="-600" y="740" as="sourcePoint" />
            <mxPoint x="-500" y="1461" as="targetPoint" />
            <Array as="points">
              <mxPoint x="-560" y="679" />
              <mxPoint x="-560" y="1425" />
            </Array>
          </mxGeometry>
        </mxCell>
        <mxCell id="XJ9OWa9lEA3RZw-inG0E-75" value="" style="endArrow=classic;html=1;rounded=0;exitX=1;exitY=0.5;exitDx=0;exitDy=0;edgeStyle=orthogonalEdgeStyle;entryX=0.16;entryY=0.55;entryDx=0;entryDy=0;entryPerimeter=0;" parent="1" target="XJ9OWa9lEA3RZw-inG0E-72" edge="1">
          <mxGeometry width="50" height="50" relative="1" as="geometry">
            <mxPoint x="-560" y="740" as="sourcePoint" />
            <mxPoint x="-520" y="1581" as="targetPoint" />
            <Array as="points">
              <mxPoint x="-560" y="1585" />
            </Array>
          </mxGeometry>
        </mxCell>
        <mxCell id="XJ9OWa9lEA3RZw-inG0E-76" value="" style="endArrow=none;dashed=1;html=1;rounded=0;" parent="1" edge="1">
          <mxGeometry width="50" height="50" relative="1" as="geometry">
            <mxPoint x="-720" y="1200" as="sourcePoint" />
            <mxPoint x="40" y="1200" as="targetPoint" />
          </mxGeometry>
        </mxCell>
        <mxCell id="XJ9OWa9lEA3RZw-inG0E-78" value="" style="endArrow=none;dashed=1;html=1;rounded=0;" parent="1" edge="1">
          <mxGeometry width="50" height="50" relative="1" as="geometry">
            <mxPoint x="-720" y="1360" as="sourcePoint" />
            <mxPoint x="40" y="1360" as="targetPoint" />
          </mxGeometry>
        </mxCell>
        <mxCell id="XJ9OWa9lEA3RZw-inG0E-79" value="" style="endArrow=none;dashed=1;html=1;rounded=0;" parent="1" edge="1">
          <mxGeometry width="50" height="50" relative="1" as="geometry">
            <mxPoint x="-720" y="1520" as="sourcePoint" />
            <mxPoint x="40" y="1520" as="targetPoint" />
          </mxGeometry>
        </mxCell>
        <mxCell id="XJ9OWa9lEA3RZw-inG0E-80" value="zone1" style="text;html=1;align=center;verticalAlign=middle;whiteSpace=wrap;rounded=0;" parent="1" vertex="1">
          <mxGeometry x="-110" y="1320" width="60" height="30" as="geometry" />
        </mxCell>
        <mxCell id="XJ9OWa9lEA3RZw-inG0E-81" value="zone1" style="text;html=1;align=center;verticalAlign=middle;whiteSpace=wrap;rounded=0;" parent="1" vertex="1">
          <mxGeometry x="-110" y="1480" width="60" height="30" as="geometry" />
        </mxCell>
        <mxCell id="jSmpcqCrmZjUqqFKralx-1" value="" style="rounded=1;whiteSpace=wrap;html=1;fillColor=none;dashed=1;" vertex="1" parent="1">
          <mxGeometry x="480" y="769" width="440" height="320" as="geometry" />
        </mxCell>
        <mxCell id="jSmpcqCrmZjUqqFKralx-2" value="" style="rounded=1;whiteSpace=wrap;html=1;fillColor=none;dashed=1;" vertex="1" parent="1">
          <mxGeometry x="480" y="410" width="440" height="320" as="geometry" />
        </mxCell>
        <mxCell id="jSmpcqCrmZjUqqFKralx-3" value="" style="edgeStyle=orthogonalEdgeStyle;rounded=0;orthogonalLoop=1;jettySize=auto;html=1;startArrow=classic;startFill=1;exitX=1;exitY=0.5;exitDx=0;exitDy=0;" edge="1" parent="1" source="jSmpcqCrmZjUqqFKralx-9" target="jSmpcqCrmZjUqqFKralx-7">
          <mxGeometry relative="1" as="geometry">
            <mxPoint x="380" y="540" as="sourcePoint" />
          </mxGeometry>
        </mxCell>
        <mxCell id="jSmpcqCrmZjUqqFKralx-4" value="pymongo-api" style="rounded=1;whiteSpace=wrap;html=1;" vertex="1" parent="1">
          <mxGeometry x="-240" y="510" width="120" height="60" as="geometry" />
        </mxCell>
        <mxCell id="jSmpcqCrmZjUqqFKralx-5" style="edgeStyle=orthogonalEdgeStyle;rounded=0;orthogonalLoop=1;jettySize=auto;html=1;exitX=1;exitY=0.5;exitDx=0;exitDy=0;entryX=0;entryY=0.5;entryDx=0;entryDy=0;fillColor=#60a917;strokeColor=#2D7600;" edge="1" parent="1" source="jSmpcqCrmZjUqqFKralx-4" target="jSmpcqCrmZjUqqFKralx-9">
          <mxGeometry relative="1" as="geometry">
            <mxPoint x="230" y="540" as="targetPoint" />
          </mxGeometry>
        </mxCell>
        <mxCell id="jSmpcqCrmZjUqqFKralx-6" value="" style="edgeStyle=orthogonalEdgeStyle;rounded=0;orthogonalLoop=1;jettySize=auto;html=1;entryX=0;entryY=0.5;entryDx=0;entryDy=0;entryPerimeter=0;startArrow=none;startFill=0;exitX=0.5;exitY=0;exitDx=0;exitDy=0;exitPerimeter=0;" edge="1" parent="1" source="jSmpcqCrmZjUqqFKralx-7" target="jSmpcqCrmZjUqqFKralx-11">
          <mxGeometry relative="1" as="geometry" />
        </mxCell>
        <mxCell id="jSmpcqCrmZjUqqFKralx-7" value="&lt;div&gt;shard1_1&lt;/div&gt;" style="shape=cylinder3;whiteSpace=wrap;html=1;boundedLbl=1;backgroundOutline=1;size=15;" vertex="1" parent="1">
          <mxGeometry x="520" y="495" width="80" height="90" as="geometry" />
        </mxCell>
        <mxCell id="jSmpcqCrmZjUqqFKralx-8" value="" style="edgeStyle=orthogonalEdgeStyle;rounded=0;orthogonalLoop=1;jettySize=auto;html=1;startArrow=classic;startFill=1;entryX=0;entryY=0.5;entryDx=0;entryDy=0;entryPerimeter=0;exitX=0.5;exitY=1;exitDx=0;exitDy=0;" edge="1" parent="1" source="jSmpcqCrmZjUqqFKralx-9" target="jSmpcqCrmZjUqqFKralx-10">
          <mxGeometry relative="1" as="geometry">
            <mxPoint x="350" y="660" as="sourcePoint" />
          </mxGeometry>
        </mxCell>
        <mxCell id="jSmpcqCrmZjUqqFKralx-9" value="router" style="rhombus;whiteSpace=wrap;html=1;" vertex="1" parent="1">
          <mxGeometry x="270" y="500" width="120" height="80" as="geometry" />
        </mxCell>
        <mxCell id="jSmpcqCrmZjUqqFKralx-10" value="shard2_1" style="shape=cylinder3;whiteSpace=wrap;html=1;boundedLbl=1;backgroundOutline=1;size=15;" vertex="1" parent="1">
          <mxGeometry x="520" y="889" width="80" height="80" as="geometry" />
        </mxCell>
        <mxCell id="jSmpcqCrmZjUqqFKralx-11" value="shard1_2" style="shape=cylinder3;whiteSpace=wrap;html=1;boundedLbl=1;backgroundOutline=1;size=15;" vertex="1" parent="1">
          <mxGeometry x="780" y="430" width="90" height="90" as="geometry" />
        </mxCell>
        <mxCell id="jSmpcqCrmZjUqqFKralx-12" value="" style="edgeStyle=orthogonalEdgeStyle;rounded=0;orthogonalLoop=1;jettySize=auto;html=1;startArrow=classic;startFill=1;dashed=1;" edge="1" parent="1" source="jSmpcqCrmZjUqqFKralx-13" target="jSmpcqCrmZjUqqFKralx-11">
          <mxGeometry relative="1" as="geometry" />
        </mxCell>
        <mxCell id="jSmpcqCrmZjUqqFKralx-13" value="shard1_3" style="shape=cylinder3;whiteSpace=wrap;html=1;boundedLbl=1;backgroundOutline=1;size=15;" vertex="1" parent="1">
          <mxGeometry x="780" y="585" width="90" height="90" as="geometry" />
        </mxCell>
        <mxCell id="jSmpcqCrmZjUqqFKralx-14" value="" style="edgeStyle=orthogonalEdgeStyle;rounded=0;orthogonalLoop=1;jettySize=auto;html=1;entryX=0;entryY=0.5;entryDx=0;entryDy=0;entryPerimeter=0;exitX=0.5;exitY=1;exitDx=0;exitDy=0;exitPerimeter=0;startArrow=none;startFill=0;" edge="1" parent="1" source="jSmpcqCrmZjUqqFKralx-7" target="jSmpcqCrmZjUqqFKralx-13">
          <mxGeometry relative="1" as="geometry">
            <mxPoint x="610" y="550" as="sourcePoint" />
            <mxPoint x="690" y="550" as="targetPoint" />
          </mxGeometry>
        </mxCell>
        <mxCell id="jSmpcqCrmZjUqqFKralx-15" value="" style="edgeStyle=orthogonalEdgeStyle;rounded=0;orthogonalLoop=1;jettySize=auto;html=1;entryX=0;entryY=0.5;entryDx=0;entryDy=0;entryPerimeter=0;exitX=0.5;exitY=0;exitDx=0;exitDy=0;exitPerimeter=0;startArrow=none;startFill=0;" edge="1" parent="1" source="jSmpcqCrmZjUqqFKralx-10" target="jSmpcqCrmZjUqqFKralx-17">
          <mxGeometry relative="1" as="geometry">
            <mxPoint x="610" y="929" as="sourcePoint" />
          </mxGeometry>
        </mxCell>
        <mxCell id="jSmpcqCrmZjUqqFKralx-16" value="" style="edgeStyle=orthogonalEdgeStyle;rounded=0;orthogonalLoop=1;jettySize=auto;html=1;startArrow=classic;startFill=1;dashed=1;" edge="1" parent="1" source="jSmpcqCrmZjUqqFKralx-17" target="jSmpcqCrmZjUqqFKralx-18">
          <mxGeometry relative="1" as="geometry" />
        </mxCell>
        <mxCell id="jSmpcqCrmZjUqqFKralx-17" value="shard2_2" style="shape=cylinder3;whiteSpace=wrap;html=1;boundedLbl=1;backgroundOutline=1;size=15;" vertex="1" parent="1">
          <mxGeometry x="780" y="809" width="90" height="80" as="geometry" />
        </mxCell>
        <mxCell id="jSmpcqCrmZjUqqFKralx-18" value="shard2_3" style="shape=cylinder3;whiteSpace=wrap;html=1;boundedLbl=1;backgroundOutline=1;size=15;" vertex="1" parent="1">
          <mxGeometry x="780" y="969" width="90" height="80" as="geometry" />
        </mxCell>
        <mxCell id="jSmpcqCrmZjUqqFKralx-19" value="" style="edgeStyle=orthogonalEdgeStyle;rounded=0;orthogonalLoop=1;jettySize=auto;html=1;entryX=0;entryY=0.5;entryDx=0;entryDy=0;entryPerimeter=0;exitX=0.5;exitY=1;exitDx=0;exitDy=0;exitPerimeter=0;startArrow=none;startFill=0;" edge="1" parent="1" source="jSmpcqCrmZjUqqFKralx-10" target="jSmpcqCrmZjUqqFKralx-18">
          <mxGeometry relative="1" as="geometry">
            <mxPoint x="600" y="930" as="sourcePoint" />
            <mxPoint x="690" y="939" as="targetPoint" />
            <Array as="points">
              <mxPoint x="560" y="1009" />
            </Array>
          </mxGeometry>
        </mxCell>
        <mxCell id="jSmpcqCrmZjUqqFKralx-20" value="&lt;div&gt;config service&lt;/div&gt;" style="shape=cylinder3;whiteSpace=wrap;html=1;boundedLbl=1;backgroundOutline=1;size=15;" vertex="1" parent="1">
          <mxGeometry x="510" y="210" width="80" height="79" as="geometry" />
        </mxCell>
        <mxCell id="jSmpcqCrmZjUqqFKralx-21" value="" style="endArrow=classic;html=1;rounded=0;exitX=0.5;exitY=0;exitDx=0;exitDy=0;entryX=0;entryY=0.5;entryDx=0;entryDy=0;entryPerimeter=0;edgeStyle=orthogonalEdgeStyle;fillColor=#e51400;strokeColor=#B20000;" edge="1" parent="1" source="jSmpcqCrmZjUqqFKralx-9" target="jSmpcqCrmZjUqqFKralx-20">
          <mxGeometry width="50" height="50" relative="1" as="geometry">
            <mxPoint x="420" y="459" as="sourcePoint" />
            <mxPoint x="480" y="189" as="targetPoint" />
          </mxGeometry>
        </mxCell>
        <mxCell id="jSmpcqCrmZjUqqFKralx-22" value="redis" style="shape=cylinder3;whiteSpace=wrap;html=1;boundedLbl=1;backgroundOutline=1;size=15;" vertex="1" parent="1">
          <mxGeometry x="50" y="370" width="70" height="80" as="geometry" />
        </mxCell>
        <mxCell id="jSmpcqCrmZjUqqFKralx-23" value="" style="endArrow=classic;html=1;rounded=0;exitX=1;exitY=0.5;exitDx=0;exitDy=0;entryX=0.5;entryY=1;entryDx=0;entryDy=0;entryPerimeter=0;edgeStyle=orthogonalEdgeStyle;startArrow=classic;startFill=1;fillColor=#e3c800;strokeColor=#B09500;" edge="1" parent="1" source="jSmpcqCrmZjUqqFKralx-4" target="jSmpcqCrmZjUqqFKralx-22">
          <mxGeometry width="50" height="50" relative="1" as="geometry">
            <mxPoint x="260" y="660" as="sourcePoint" />
            <mxPoint x="310" y="610" as="targetPoint" />
          </mxGeometry>
        </mxCell>
        <mxCell id="jSmpcqCrmZjUqqFKralx-24" value="shard1" style="text;html=1;align=center;verticalAlign=middle;whiteSpace=wrap;rounded=0;" vertex="1" parent="1">
          <mxGeometry x="650" y="380" width="80" height="30" as="geometry" />
        </mxCell>
        <mxCell id="jSmpcqCrmZjUqqFKralx-25" value="shard2" style="text;html=1;align=center;verticalAlign=middle;whiteSpace=wrap;rounded=0;" vertex="1" parent="1">
          <mxGeometry x="650" y="739" width="80" height="30" as="geometry" />
        </mxCell>
        <mxCell id="jSmpcqCrmZjUqqFKralx-26" value="" style="endArrow=classic;html=1;rounded=0;exitX=1;exitY=0.5;exitDx=0;exitDy=0;edgeStyle=orthogonalEdgeStyle;dashed=1;entryX=1;entryY=0.5;entryDx=0;entryDy=0;entryPerimeter=0;" edge="1" parent="1" source="jSmpcqCrmZjUqqFKralx-2" target="jSmpcqCrmZjUqqFKralx-20">
          <mxGeometry width="50" height="50" relative="1" as="geometry">
            <mxPoint x="540" y="490" as="sourcePoint" />
            <mxPoint x="920" y="250" as="targetPoint" />
            <Array as="points">
              <mxPoint x="960" y="570" />
              <mxPoint x="960" y="250" />
            </Array>
          </mxGeometry>
        </mxCell>
        <mxCell id="jSmpcqCrmZjUqqFKralx-27" value="pymongo-api" style="rounded=1;whiteSpace=wrap;html=1;" vertex="1" parent="1">
          <mxGeometry x="-240" y="769" width="120" height="60" as="geometry" />
        </mxCell>
        <mxCell id="jSmpcqCrmZjUqqFKralx-28" value="pymongo-api" style="rounded=1;whiteSpace=wrap;html=1;" vertex="1" parent="1">
          <mxGeometry x="-240" y="650" width="120" height="60" as="geometry" />
        </mxCell>
        <mxCell id="jSmpcqCrmZjUqqFKralx-29" style="rounded=0;orthogonalLoop=1;jettySize=auto;html=1;exitX=1;exitY=0.5;exitDx=0;exitDy=0;entryX=0;entryY=0.5;entryDx=0;entryDy=0;fillColor=#60a917;strokeColor=#2D7600;" edge="1" parent="1" source="jSmpcqCrmZjUqqFKralx-28" target="jSmpcqCrmZjUqqFKralx-9">
          <mxGeometry relative="1" as="geometry">
            <mxPoint x="280" y="550" as="targetPoint" />
            <mxPoint x="-110" y="550" as="sourcePoint" />
          </mxGeometry>
        </mxCell>
        <mxCell id="jSmpcqCrmZjUqqFKralx-30" style="rounded=0;orthogonalLoop=1;jettySize=auto;html=1;exitX=1;exitY=0.5;exitDx=0;exitDy=0;entryX=0;entryY=0.5;entryDx=0;entryDy=0;fillColor=#60a917;strokeColor=#2D7600;" edge="1" parent="1" source="jSmpcqCrmZjUqqFKralx-27" target="jSmpcqCrmZjUqqFKralx-9">
          <mxGeometry relative="1" as="geometry">
            <mxPoint x="240" y="939" as="targetPoint" />
            <mxPoint x="-110" y="1300" as="sourcePoint" />
          </mxGeometry>
        </mxCell>
        <mxCell id="jSmpcqCrmZjUqqFKralx-31" value="" style="edgeStyle=orthogonalEdgeStyle;rounded=0;orthogonalLoop=1;jettySize=auto;html=1;" edge="1" parent="1" source="jSmpcqCrmZjUqqFKralx-32" target="jSmpcqCrmZjUqqFKralx-28">
          <mxGeometry relative="1" as="geometry" />
        </mxCell>
        <mxCell id="jSmpcqCrmZjUqqFKralx-32" value="apisix gw" style="rounded=1;whiteSpace=wrap;html=1;" vertex="1" parent="1">
          <mxGeometry x="-480" y="650" width="120" height="60" as="geometry" />
        </mxCell>
        <mxCell id="jSmpcqCrmZjUqqFKralx-33" value="consul" style="rounded=1;whiteSpace=wrap;html=1;" vertex="1" parent="1">
          <mxGeometry x="-480" y="510" width="120" height="60" as="geometry" />
        </mxCell>
        <mxCell id="jSmpcqCrmZjUqqFKralx-34" value="" style="endArrow=classic;html=1;rounded=0;exitX=0;exitY=0.5;exitDx=0;exitDy=0;entryX=1;entryY=0.5;entryDx=0;entryDy=0;dashed=1;" edge="1" parent="1" source="jSmpcqCrmZjUqqFKralx-4" target="jSmpcqCrmZjUqqFKralx-33">
          <mxGeometry width="50" height="50" relative="1" as="geometry">
            <mxPoint x="90" y="900" as="sourcePoint" />
            <mxPoint x="140" y="850" as="targetPoint" />
            <Array as="points">
              <mxPoint x="-320" y="540" />
            </Array>
          </mxGeometry>
        </mxCell>
        <mxCell id="jSmpcqCrmZjUqqFKralx-35" value="" style="endArrow=classic;html=1;rounded=0;exitX=0;exitY=0.5;exitDx=0;exitDy=0;entryX=1;entryY=0.5;entryDx=0;entryDy=0;dashed=1;" edge="1" parent="1" source="jSmpcqCrmZjUqqFKralx-28" target="jSmpcqCrmZjUqqFKralx-33">
          <mxGeometry width="50" height="50" relative="1" as="geometry">
            <mxPoint x="-230" y="550" as="sourcePoint" />
            <mxPoint x="-410" y="550" as="targetPoint" />
          </mxGeometry>
        </mxCell>
        <mxCell id="jSmpcqCrmZjUqqFKralx-36" value="" style="endArrow=classic;html=1;rounded=0;exitX=0;exitY=0.5;exitDx=0;exitDy=0;entryX=1;entryY=0.5;entryDx=0;entryDy=0;dashed=1;" edge="1" parent="1" source="jSmpcqCrmZjUqqFKralx-27" target="jSmpcqCrmZjUqqFKralx-33">
          <mxGeometry width="50" height="50" relative="1" as="geometry">
            <mxPoint x="-230" y="939" as="sourcePoint" />
            <mxPoint x="-410" y="550" as="targetPoint" />
          </mxGeometry>
        </mxCell>
        <mxCell id="jSmpcqCrmZjUqqFKralx-37" value="" style="endArrow=classic;html=1;rounded=0;exitX=0.5;exitY=0;exitDx=0;exitDy=0;entryX=0.5;entryY=1;entryDx=0;entryDy=0;dashed=1;" edge="1" parent="1" source="jSmpcqCrmZjUqqFKralx-32" target="jSmpcqCrmZjUqqFKralx-33">
          <mxGeometry width="50" height="50" relative="1" as="geometry">
            <mxPoint x="90" y="900" as="sourcePoint" />
            <mxPoint x="140" y="850" as="targetPoint" />
          </mxGeometry>
        </mxCell>
        <mxCell id="jSmpcqCrmZjUqqFKralx-38" value="" style="endArrow=classic;html=1;rounded=0;edgeStyle=orthogonalEdgeStyle;dashed=1;exitX=1;exitY=0.5;exitDx=0;exitDy=0;entryX=1;entryY=0.5;entryDx=0;entryDy=0;entryPerimeter=0;" edge="1" parent="1" source="jSmpcqCrmZjUqqFKralx-1" target="jSmpcqCrmZjUqqFKralx-20">
          <mxGeometry width="50" height="50" relative="1" as="geometry">
            <mxPoint x="960" y="929" as="sourcePoint" />
            <mxPoint x="590" y="310" as="targetPoint" />
            <Array as="points">
              <mxPoint x="1000" y="929" />
              <mxPoint x="1000" y="250" />
              <mxPoint x="590" y="250" />
            </Array>
          </mxGeometry>
        </mxCell>
        <mxCell id="jSmpcqCrmZjUqqFKralx-39" value="zone0" style="text;html=1;align=center;verticalAlign=middle;whiteSpace=wrap;rounded=0;" vertex="1" parent="1">
          <mxGeometry x="-100" y="1160" width="60" height="30" as="geometry" />
        </mxCell>
      </root>
    </mxGraphModel>
  </diagram>
</mxfile>
